<svg id="Group_3" data-name="Group 3" xmlns="http://www.w3.org/2000/svg" xmlns:xlink="http://www.w3.org/1999/xlink" width="710" height="1098" viewBox="0 0 710 1098">
  <defs>
    <clipPath id="clip-path">
      <path id="Clip_2" data-name="Clip 2" d="M0,0H710V1098H0Z" fill="none"/>
    </clipPath>
  </defs>
  <path id="Clip_2-2" data-name="Clip 2" d="M0,0H710V1098H0Z" fill="none"/>
  <g id="Group_3-2" data-name="Group 3" clip-path="url(#clip-path)">
    <path id="Fill_1" data-name="Fill 1" d="M567.441,1015.86C522.357,923.776,461.71,838.225,388.819,766.021c-26.281-26.03-54.426-49.714-83.79-72.167a527.406,527.406,0,0,0-46.5-32.134,911.389,911.389,0,0,1-83.663-57.608l11.059,8.546c-20.6-16.035-39.9-33.678-55.983-54.324l8.545,11.061a189.016,189.016,0,0,1-23.945-41.272q2.76,6.532,5.511,13.06a171.92,171.92,0,0,1-11.191-40.316q.977,7.264,1.949,14.532c-1.2-9-2-18.19-.8-27.228q-.977,7.264-1.954,14.532c2.378-17.247,7.566-34.066,14.193-50.123q-2.753,6.526-5.511,13.056a256.265,256.265,0,0,1,33.551-56.975l-8.545,11.061c20.387-26.267,44.788-49.19,71.042-69.5q-5.534,4.271-11.064,8.546C246.244,324.5,296.1,297.75,347.716,275.884l-13.054,5.508c39.641-16.687,80.616-29.966,120.343-46.52,57.022-23.761,114.176-48.894,166.538-81.952a483.118,483.118,0,0,0,46.432-33.555C681.5,108.385,692.024,96.19,702.66,82.391c8.03-10.409,8.809-30.143,5.511-42.12-3.489-12.682-13.3-26.422-25.12-32.672C670.366.9,655-2.463,640.938,2.088Q634.406,4.849,627.879,7.6A54.96,54.96,0,0,0,608.27,27.211c-.178.232-.355.465-.537.7l8.549-11.065c-8.823,11.229-19.672,20.7-30.923,29.414q5.527-4.271,11.059-8.546c-41.923,32.2-90.55,55.909-138.494,77.666q-19.089,8.671-38.42,16.805l13.054-5.512c-50.326,21.206-102.3,38.061-152.277,60.1C212.229,216.781,146.53,256.71,93.621,309.5a399.226,399.226,0,0,0-48.3,58.556,247.218,247.218,0,0,0-22.6,41.527c-8.431,19.725-16.2,39.55-19.595,60.829C1.937,477.881.635,485.406.17,492.964-.7,507.236,1.955,522.611,4.515,536.45a172.878,172.878,0,0,0,10.13,33.8c6.044,14.819,12.444,29.291,21.207,42.716,30.763,47.121,75.441,81.16,121.309,112.542,15.263,10.441,30.4,21.028,46.2,30.617,12.662,7.685,24.888,16.1,36.817,24.877q6.347,4.667,12.576,9.489-5.534-4.271-11.064-8.546A789.617,789.617,0,0,1,350.458,884.636q18.249,20.725,35.131,42.589l-8.549-11.065a905.9,905.9,0,0,1,96.011,154.88c5.766,11.785,20.387,21.743,32.663,25.123,13.086,3.6,30.508,1.977,42.118-5.512,11.669-7.526,21.945-18.727,25.12-32.667,3.4-14.942,1.239-28.339-5.511-42.124" fill="#00843c"/>
  </g>
</svg>
