<svg id="Group_3" data-name="Group 3" xmlns="http://www.w3.org/2000/svg" xmlns:xlink="http://www.w3.org/1999/xlink" width="1841" height="576" viewBox="0 0 1841 576">
  <defs>
    <clipPath id="clip-path">
      <path id="Clip_2" data-name="Clip 2" d="M0,0H1841V576H0Z" fill="none"/>
    </clipPath>
  </defs>
  <path id="Clip_2-2" data-name="Clip 2" d="M0,0H1841V576H0Z" fill="none"/>
  <g id="Group_3-2" data-name="Group 3" clip-path="url(#clip-path)">
    <path id="Fill_1" data-name="Fill 1" d="M55.176,575.242c83.527,4.942,170.684-13.728,233.219-72.251,27.438-25.683,49.62-59.942,59.99-96.262C363.041,355.39,379.443,304.56,400.118,255.3q-2.777,6.579-5.555,13.163c17.978-42.512,38.892-84.481,67.079-121.252q-4.314,5.573-8.624,11.152c11.766-15.207,24.847-29.5,40.068-41.331l-11.16,8.621a127.292,127.292,0,0,1,27.649-16.507L496.4,114.7a83.974,83.974,0,0,1,20.6-5.805l-14.656,1.97c11.073-1.47,22.618-.694,33.668.684q-7.333-.985-14.661-1.966a68.483,68.483,0,0,1,16.678,4.758l-13.168-5.553a123.414,123.414,0,0,1,25.559,15.529Q544.846,120,539.266,115.7c21.727,16.92,39.93,38.052,56.76,59.712q-4.314-5.58-8.619-11.156C644.424,238.134,688.7,322.261,729.232,406.036c5.821,12.033,11.385,24.163,17.615,35.994q6.368,12.091,12.731,24.186c6.951,13.2,16.384,25.21,25.577,36.876A138.871,138.871,0,0,0,895.689,555.91c43.537-.574,82.843-19.354,116.083-46.255,31.669-25.628,55.4-61.186,76.36-95.7,20.193-33.252,38.5-67.681,62.149-98.7l-8.619,11.152c12.52-16.135,26.331-31.121,42.526-43.642l-11.155,8.616a154.921,154.921,0,0,1,30.268-17.834q-6.589,2.783-13.172,5.557a150.6,150.6,0,0,1,36.158-9.778q-7.326.978-14.656,1.966a197.353,197.353,0,0,1,49.372.372l-14.656-1.97c25.329,3.5,49.707,10.871,73.286,20.677q-6.582-2.776-13.172-5.557c71.664,30.409,132.738,79.98,201.117,116.471,21.452,11.445,44.235,20.287,68.347,23.86,19.954,2.958,35.579,2.724,55.588-.689,29.85-5.094,58.9-19.5,84.285-35.6,40.482-25.674,76.691-58.316,109.375-93.213,19.724-21.049,22.435-57.356,0-77.941-21.41-19.653-56.911-22.478-77.968,0-21.594,23.052-44.488,44.859-69.427,64.282q5.575-4.306,11.16-8.616c-20.629,15.859-42.581,30.171-66.6,40.371q6.589-2.776,13.172-5.557a152.11,152.11,0,0,1-36.374,10.444l14.656-1.97a91.63,91.63,0,0,1-22.568.317l14.656,1.97a166.69,166.69,0,0,1-39.581-10.518l13.168,5.553c-42.007-17.917-80.219-46.048-118.7-70.317-40.528-25.559-82-49.057-127.128-65.609-50.194-18.4-109.27-26.051-161.017-9.618-54.527,17.315-93.754,57.232-126.076,102.734-30.475,42.9-52.482,91.2-84.51,133.065q4.307-5.573,8.619-11.156c-11.532,14.8-24.2,28.692-38.989,40.307q5.582-4.306,11.16-8.616a156.431,156.431,0,0,1-32.372,19.01l13.168-5.557a130.257,130.257,0,0,1-29.97,8.437q7.326-.985,14.656-1.966a106.206,106.206,0,0,1-25.127.326q7.333.985,14.656,1.966a92.732,92.732,0,0,1-21.778-5.7q6.589,2.783,13.172,5.557a91.757,91.757,0,0,1-18.07-10.4q5.575,4.313,11.16,8.621a115.213,115.213,0,0,1-19.2-19.919q4.307,5.58,8.619,11.156c-17.275-23.01-29.749-49.194-42.1-75.075q-22.956-48.1-48.187-95.068c-20.615-38.268-42.421-75.971-66.482-112.186C691.282,118.314,665.6,82.5,634.573,52.8,620.73,39.542,605.4,26.709,588.523,17.51,567.664,6.138,547.563,1.6,523.948.25c-27.149-1.557-50.521,4.221-74.664,15.8C428.967,25.8,410.621,41.117,395.014,57.2c-23.79,24.5-43.661,53.406-60.449,83.067-24.957,44.1-44.433,91.513-61.483,139.141-10.558,29.5-19.981,59.4-28.619,89.52-1.392,4.85-2.623,9.774-4.273,14.55-.914,2.65-1.939,5.263-3.019,7.854q2.777-6.579,5.559-13.163a169.613,169.613,0,0,1-21.938,37.221q4.307-5.58,8.619-11.156a184.437,184.437,0,0,1-32.391,32.2q5.575-4.313,11.16-8.616a204.409,204.409,0,0,1-43.261,25.114l13.168-5.553c-21.171,8.915-43.441,14.472-66.174,17.572q7.326-.985,14.656-1.966a381.54,381.54,0,0,1-71.393,2.035c-28.844-1.7-56.411,26.57-55.133,55.115,1.4,31.319,24.236,53.287,55.133,55.115" fill="#00843c"/>
  </g>
</svg>
