<svg id="Group_20" data-name="Group 20" xmlns="http://www.w3.org/2000/svg" xmlns:xlink="http://www.w3.org/1999/xlink" width="294" height="160" viewBox="0 0 294 160">
  <defs>
    <clipPath id="clip-path">
      <path id="Clip_2" data-name="Clip 2" d="M0,0H223.725V132.165H0Z" fill="none"/>
    </clipPath>
  </defs>
  <g id="Group_3" data-name="Group 3" transform="translate(70.275)">
    <path id="Clip_2-2" data-name="Clip 2" d="M0,0H223.725V132.165H0Z" fill="none"/>
    <g id="Group_3-2" data-name="Group 3" clip-path="url(#clip-path)">
      <path id="Fill_1" data-name="Fill 1" d="M0,113.512a18.648,18.648,0,0,0,18.642,18.653h186.44a18.648,18.648,0,0,0,18.642-18.653V95.665a23.251,23.251,0,0,0-14.167-21.409l-20.871-8.837a23.244,23.244,0,0,1-12.309-12.286l-16.626-39A23.239,23.239,0,0,0,138.376,0H18.365A18.372,18.372,0,0,0,0,18.376Z" transform="translate(0 0)" fill="#d6ebe2"/>
    </g>
  </g>
  <path id="Fill_4" data-name="Fill 4" d="M22.8,0A22.817,22.817,0,1,1,0,22.817,22.81,22.81,0,0,1,22.8,0" transform="translate(208.884 109.347)" fill="#fff"/>
  <path id="Fill_6" data-name="Fill 6" d="M27.817,55.67A27.835,27.835,0,1,1,55.638,27.835,27.858,27.858,0,0,1,27.817,55.67Zm0-45.635a17.8,17.8,0,1,0,17.79,17.8A17.814,17.814,0,0,0,27.817,10.036Z" transform="translate(203.865 104.33)" fill="#d6ebe2"/>
  <path id="Fill_8" data-name="Fill 8" d="M45.608,22.817A22.8,22.8,0,1,1,22.8,0,22.81,22.81,0,0,1,45.608,22.817Z" transform="translate(98.191 109.347)" fill="#fff"/>
  <path id="Fill_10" data-name="Fill 10" d="M27.82,55.67A27.835,27.835,0,1,1,55.638,27.835,27.859,27.859,0,0,1,27.82,55.67Zm0-45.635a17.8,17.8,0,1,0,17.789,17.8A17.815,17.815,0,0,0,27.82,10.036Z" transform="translate(93.176 104.33)" fill="#d6ebe2"/>
  <path id="Fill_12" data-name="Fill 12" d="M88.1,78.854H75.622A4.729,4.729,0,0,1,70.9,74.128V65.8H46.958c-.034,0-.067.006-.1.011a.928.928,0,0,1-.128.012H39.854L32.362,76.332a6.328,6.328,0,0,1-5.039,2.522H11.651a3.091,3.091,0,0,1-2.814-1.739,3.136,3.136,0,0,1,.3-3.3l5.988-7.994H9.094a4,4,0,0,1,0-8H21.111L28.5,47.962H4.195c-.064,0-.129,0-.193,0s-.129,0-.194,0a4,4,0,0,1,.191-8c.065,0,.131,0,.2,0H34.486l7.488-10H22.445a4,4,0,0,1,0-8H47.965L62.528,2.521A6.32,6.32,0,0,1,67.564,0H88.093a4.728,4.728,0,0,1,4.721,4.726l0,69.4A4.729,4.729,0,0,1,88.1,78.854Zm-17.2-56.88L52.436,47.966H70.895Z" transform="translate(109.934 22.326)" fill="#fff"/>
  <path id="Fill_14" data-name="Fill 14" d="M5.869,11.744A5.872,5.872,0,0,1,5.869,0H28.041a5.872,5.872,0,0,1,0,11.744Z" transform="translate(17.844 33.507)" fill="#d6ebe2"/>
  <path id="Fill_16" data-name="Fill 16" d="M5.869,11.744A5.872,5.872,0,0,1,5.869,0H53.735a5.872,5.872,0,0,1,0,11.744Z" transform="translate(0 61.752)" fill="#d6ebe2"/>
  <path id="Fill_18" data-name="Fill 18" d="M5.869,11.744A5.872,5.872,0,0,1,5.869,0L39.32.008a5.872,5.872,0,0,1,0,11.744Z" transform="translate(9.758 89.991)" fill="#d6ebe2"/>
</svg>
